<?xml version="1.0" encoding="utf-8"?>
<!-- Generator: Adobe Illustrator 21.1.0, SVG Export Plug-In . SVG Version: 6.00 Build 0)  -->
<svg version="1.1" id="Layer_1" xmlns="http://www.w3.org/2000/svg" xmlns:xlink="http://www.w3.org/1999/xlink"
	 x="0px" y="0px" width="30px" height="30px" viewBox="0 0 70.2 69.4"
	 style="enable-background:new 0 0 70.2 69.4;" xml:space="preserve">
<style type="text/css">
	.st0{fill:#FFFFFF;}
</style>
<g>
	<path class="st0" d="M35.1,0C15.7,0,0,15.7,0,35.1C0,45.6,4.6,55,11.9,61.5l13.6-37.7V13.7c-1.5-0.7-2.6-2.3-2.6-4s1.1-3.8,3.3-4
		l8.9,0l8.9,0c2.2,0.2,3.3,2.3,3.3,4s-1,3.3-2.6,4v10.1l13.6,37.7c7.3-6.4,11.9-15.9,11.9-26.4C70.2,15.7,54.5,0,35.1,0z"/>
	<path class="st0" d="M28.9,29.2L16.6,63.9c5.2,3.3,11.8,5.5,18.5,5.5s13.3-2.3,18.5-5.5L42.9,33.1L28.9,29.2z"/>
</g>
</svg>
